<svg width="20" height="20" viewBox="0 0 20 20" fill="none" xmlns="http://www.w3.org/2000/svg">
<path d="M16.2852 17.1477L11.0512 11.9137C10.6345 12.2577 10.1554 12.5269 9.61371 12.7214C9.07204 12.9158 8.51168 13.0131 7.93263 13.0131C6.50832 13.0131 5.30289 12.5199 4.31634 11.5336C3.32978 10.5473 2.8365 9.34217 2.8365 7.91824C2.8365 6.49429 3.32966 5.28873 4.31596 4.30155C5.30227 3.31438 6.50739 2.8208 7.93134 2.8208C9.35527 2.8208 10.5608 3.31408 11.548 4.30064C12.5352 5.28719 13.0288 6.49262 13.0288 7.91693C13.0288 8.51201 12.9289 9.08039 12.7291 9.62205C12.5293 10.1637 12.2627 10.6349 11.9294 11.0355L17.1634 16.2695L16.2852 17.1477ZM7.93263 11.7631C9.00635 11.7631 9.91581 11.3905 10.661 10.6453C11.4062 9.90011 11.7788 8.99065 11.7788 7.91693C11.7788 6.8432 11.4062 5.93375 10.661 5.18855C9.91581 4.44336 9.00635 4.07076 7.93263 4.07076C6.85891 4.07076 5.94945 4.44336 5.20425 5.18855C4.45907 5.93375 4.08648 6.8432 4.08648 7.91693C4.08648 8.99065 4.45907 9.90011 5.20425 10.6453C5.94945 11.3905 6.85891 11.7631 7.93263 11.7631Z" fill="#007EFC"/>
</svg>
