<svg width="20" height="20" viewBox="0 0 20 20" fill="none" xmlns="http://www.w3.org/2000/svg">
<mask id="path-1-inside-1_127_891" fill="white">
<path d="M16.942 6.02399C16.0064 4.39044 14.5247 3.13916 12.7575 2.49027C10.9904 1.84139 9.05101 1.83647 7.2806 2.47638C5.51018 3.11629 4.02214 4.36005 3.07826 5.98883C2.13437 7.61761 1.79511 9.52709 2.12016 11.3813C2.4452 13.2356 3.41373 14.9158 4.85536 16.1264C6.29699 17.337 8.11936 18.0004 10.0019 18C11.8844 17.9996 13.7064 17.3353 15.1475 16.124C16.5886 14.9127 17.5563 13.232 17.8805 11.3776L16.3044 11.1021C16.045 12.5856 15.2709 13.9302 14.118 14.8992C12.9652 15.8682 11.5075 16.3996 10.0015 16.4C8.49548 16.4004 7.03759 15.8696 5.88429 14.9011C4.73099 13.9326 3.95616 12.5885 3.69612 11.1051C3.43609 9.62167 3.7075 8.09409 4.46261 6.79106C5.21771 5.48804 6.40815 4.49303 7.82448 3.9811C9.24081 3.46917 10.7923 3.47311 12.206 3.99222C13.6197 4.51133 14.8051 5.51235 15.5536 6.81919L16.942 6.02399Z"/>
</mask>
<path d="M16.942 6.02399C16.0064 4.39044 14.5247 3.13916 12.7575 2.49027C10.9904 1.84139 9.05101 1.83647 7.2806 2.47638C5.51018 3.11629 4.02214 4.36005 3.07826 5.98883C2.13437 7.61761 1.79511 9.52709 2.12016 11.3813C2.4452 13.2356 3.41373 14.9158 4.85536 16.1264C6.29699 17.337 8.11936 18.0004 10.0019 18C11.8844 17.9996 13.7064 17.3353 15.1475 16.124C16.5886 14.9127 17.5563 13.232 17.8805 11.3776L16.3044 11.1021C16.045 12.5856 15.2709 13.9302 14.118 14.8992C12.9652 15.8682 11.5075 16.3996 10.0015 16.4C8.49548 16.4004 7.03759 15.8696 5.88429 14.9011C4.73099 13.9326 3.95616 12.5885 3.69612 11.1051C3.43609 9.62167 3.7075 8.09409 4.46261 6.79106C5.21771 5.48804 6.40815 4.49303 7.82448 3.9811C9.24081 3.46917 10.7923 3.47311 12.206 3.99222C13.6197 4.51133 14.8051 5.51235 15.5536 6.81919L16.942 6.02399Z" stroke="#575656" stroke-width="4" mask="url(#path-1-inside-1_127_891)"/>
<path d="M12 7H17V2" stroke="#575656" stroke-width="2"/>
</svg>
