<svg width="40" height="40" viewBox="0 0 50 50" fill="none" xmlns="http://www.w3.org/2000/svg">
<circle cx="25" cy="25" r="25" fill="#4BE35A"/>
<path d="M19.4263 32.3008L35.8688 17.2005C36.2568 16.8442 36.7095 16.666 37.2269 16.666C37.7442 16.666 38.1969 16.8442 38.585 17.2005C38.973 17.5569 39.167 17.98 39.167 18.47C39.167 18.96 38.973 19.3832 38.585 19.7395L20.7844 36.1315C20.3964 36.4878 19.9437 36.666 19.4263 36.666C18.909 36.666 18.4563 36.4878 18.0682 36.1315L9.72575 28.47C9.33772 28.1137 9.15179 27.6905 9.16796 27.2005C9.18413 26.7106 9.38623 26.2874 9.77425 25.931C10.1623 25.5747 10.623 25.3965 11.1566 25.3965C11.6901 25.3965 12.1509 25.5747 12.5389 25.931L19.4263 32.3008Z" fill="white"/>
</svg>
